#!OML:ASF I:\Actors\actors\Patient Classification 1\Patient 1\Session 1\Subject1.ASF
:FULLY-SPECIFIED
:DEGREES
1413
root 0.797635 17.5138 9.70504 12.1712 -8.63447 -10.9175
lowerback -1.31719 2.50782 4.76235
upperback -8.37357 3.618 1.64042
thorax -7.86529 1.52248 -1.12176
lowerneck -15.4503 -1.87313 0.329501
upperneck 27.2897 -5.2427 8.10411
head 11.7311 -1.31868 2.18349
rclavicle -2.44505e-014 1.19271e-014
rhumerus 2.22235 51.2542 -89.5082
rradius 83.6619
rwrist 15.2529
rhand 5.6736 -63.195
rfingers 7.12502
rthumb 31.0122 450.594
lclavicle -2.44505e-014 1.19271e-014
lhumerus -18.086 -31.3443 71.781
lradius 91.736
lwrist -24.9498
lhand -15.5102 -36.1997
lfingers 7.12502
lthumb 10.6727 -6.49073
rfemur -7.30861 21.0982 25.2896
rtibia 5.26073
rfoot -12.0955 -17.3142
rtoes -5.40129
lfemur 11.8325 -52.5761 -17.6151
ltibia -4.79144
lfoot -55.2829 60.6564
ltoes 30.9484
1414
root 0.794069 17.5166 9.69588 12.1656 -8.42619 -11.0141
lowerback -1.22349 2.45025 4.85337
upperback -8.37598 3.55184 1.65774
thorax -7.92287 1.48258 -1.15519
lowerneck -15.4329 -1.90152 0.354977
upperneck 27.1499 -5.26514 8.06548
head 11.6723 -1.33607 2.1582
rclavicle 1.60022e-014 -6.20208e-014
rhumerus 1.42422 51.1849 -90.0679
rradius 83.7939
rwrist 15.1806
rhand 5.87879 -62.994
rfingers 7.12502
rthumb 31.2078 450.356
lclavicle 1.60022e-014 -6.20208e-014
lhumerus -17.9672 -31.2225 71.7655
lradius 91.6868
lwrist -25.1367
lhand -15.2287 -36.1245
lfingers 7.12502
lthumb 10.9442 -6.42973
rfemur -7.3829 21.1089 25.4344
rtibia 5.37215
rfoot -12.1259 -17.507
rtoes -5.446
lfemur 11.4397 -52.2602 -17.0769
ltibia -4.80043
lfoot -54.2239 60.5154
ltoes 30.5614
1415
root 0.791283 17.5185 9.68888 12.1645 -8.27866 -11.0607
lowerback -1.16016 2.41229 4.90546
upperback -8.36816 3.50754 1.66527
thorax -7.95166 1.45669 -1.17671
lowerneck -15.4633 -1.9229 0.299382
upperneck 27.0689 -5.27837 8.083
head 11.6494 -1.34746 2.17043
rclavicle -2.45499e-014 2.94201e-014
rhumerus 0.638296 51.0798 -90.6458
rradius 83.9516
rwrist 14.8846
rhand 5.64457 -63.0023
rfingers 7.12502
rthumb 30.9846 450.407
lclavicle -2.45499e-014 2.94201e-014
lhumerus -17.8832 -30.9292 71.8067
lradius 91.7979
lwrist -25.0671
lhand -14.9145 -35.861
lfingers 7.12502
lthumb 11.2472 -6.18254
rfemur -7.44124 21.0552 25.5064
rtibia 5.44049
rfoot -12.1586 -17.5775
rtoes -5.45316
lfemur 11.0959 -51.9545 -16.6667
ltibia -4.79306
lfoot -53.4085 60.3314
ltoes 30.3559
1416
root 0.789396 17.5187 9.68577 12.1528 -8.22799 -11.0455
lowerback -1.147 2.38889 4.8849
upperback -8.3388 3.47561 1.67362
thorax -7.93022 1.44359 -1.15506
lowerneck -15.416 -1.90466 0.234422
upperneck 26.8831 -5.20854 8.06687
head 11.5646 -1.33192 2.18189
rclavicle -1.43125e-014 -2.38542e-014
rhumerus -0.0786078 50.9297 -91.2358
rradius 83.9963
rwrist 14.5495
rhand 5.37853 -62.964
rfingers 7.12502
rthumb 30.731 450.416
lclavicle -1.43125e-014 -2.38542e-014
lhumerus -17.8897 -30.2914 71.9894
lradius 92.1444
lwrist -24.4372
lhand -14.8257 -35.6342
lfingers 7.12502
lthumb 11.3329 -5.96044
rfemur -7.4825 20.931 25.4998
rtibia 5.52006
rfoot -12.172 -17.504
rtoes -5.39248
lfemur 10.9755 -51.8448 -16.5698
ltibia -4.76368
lfoot -53.1148 60.2574
ltoes 30.2682
1417
root 0.787734 17.5183 9.68226 12.1663 -8.24428 -11.0469
lowerback -1.15208 2.37928 4.8675
upperback -8.31522 3.46099 1.67996
thorax -7.90331 1.43877 -1.13739
lowerneck -15.4413 -1.87485 0.231381
upperneck 26.827 -5.15121 8.03786
head 11.544 -1.31112 2.17864
rclavicle 7.25564e-015 -1.03368e-014
rhumerus -0.832408 50.5989 -92.0047
rradius 83.9553
rwrist 14.4387
rhand 5.50064 -62.8768
rfingers 7.12502
rthumb 30.8474 450.307
lclavicle 7.25564e-015 -1.03368e-014
lhumerus -18.0162 -29.3594 72.2443
lradius 92.7552
lwrist -23.1825
lhand -15.2507 -35.6962
lfingers 7.12502
lthumb 10.923 -6.00032
rfemur -7.58631 20.8226 25.4954
rtibia 5.65896
rfoot -12.1744 -17.3915
rtoes -5.4119
lfemur 10.9456 -51.9085 -16.5594
ltibia -4.71724
lfoot -53.4202 60.1649
ltoes 30.5195
1418
root 0.786952 17.5175 9.67864 12.1734 -8.33221 -11.0617
lowerback -1.1183 2.40677 4.88093
upperback -8.2994 3.49942 1.67127
thorax -7.90243 1.45665 -1.15709
lowerneck -15.5034 -1.86273 0.233497
upperneck 26.8455 -5.13867 8.04021
head 11.5632 -1.30272 2.18117
rclavicle 6.36111e-015 5.08889e-014
rhumerus -1.55154 50.1531 -92.7634
rradius 84.1289
rwrist 14.4136
rhand 5.76725 -62.8927
rfingers 7.12502
rthumb 31.1015 450.275
lclavicle 6.36111e-015 5.08889e-014
lhumerus -18.2494 -28.2173 72.5975
lradius 93.5143
lwrist -21.7441
lhand -15.7163 -35.4779
lfingers 7.12502
lthumb 10.4738 -5.75885
rfemur -7.6642 20.7923 25.499
rtibia 5.74883
rfoot -12.16 -17.3005
rtoes -5.63492
lfemur 10.9832 -51.9401 -16.5906
ltibia -4.70059
lfoot -53.836 60.0564
ltoes 30.9335
1419
root 0.786346 17.5168 9.67696 12.1764 -8.51166 -11.0874
lowerback -1.13817 2.4676 4.75983
upperback -8.25316 3.57937 1.76301
thorax -7.84802 1.51033 -0.996182
lowerneck -15.5111 -1.85563 0.164478
upperneck 26.8276 -5.09989 8.0167
head 11.556 -1.29546 2.18955
rclavicle -2.34566e-014 -2.38542e-014
rhumerus -2.15528 49.7225 -93.2581
rradius 84.4111
rwrist 14.4696
rhand 5.2797 -62.6162
rfingers 7.12502
rthumb 30.6367 450.086
lclavicle -2.34566e-014 -2.38542e-014
lhumerus -18.5769 -26.7124 73.2543
lradius 94.4373
lwrist -20.2119
lhand -15.829 -34.7168
lfingers 7.12502
lthumb 10.3651 -4.99222
rfemur -7.70213 20.8007 25.509
rtibia 5.78582
rfoot -12.1119 -17.1624
rtoes -5.86044
lfemur 11.1668 -52.0305 -16.7386
ltibia -4.72918
lfoot -54.2571 60.2143
ltoes 30.9664
